<svg width="16" height="19" viewBox="0 0 16 19" fill="none" xmlns="http://www.w3.org/2000/svg">
<path fill-rule="evenodd" clip-rule="evenodd" d="M5.52524 3.21484C5.70126 1.96308 6.77662 0.999999 8.07692 1C9.37723 1 10.4526 1.96308 10.6286 3.21484H5.52524ZM4.5 4.21484L4.5 7.2C4.5 7.47614 4.72386 7.7 5 7.7C5.27614 7.7 5.5 7.47614 5.5 7.2L5.5 4.21484H10.6538L10.6538 7.2C10.6538 7.47614 10.8777 7.7 11.1538 7.7C11.43 7.7 11.6538 7.47614 11.6538 7.2L11.6538 4.21484H15V17.0148H1V4.21484H4.5ZM4.5181 3.21484C4.69959 1.40941 6.22367 0 8.07692 0C9.93018 0 11.4543 1.40941 11.6357 3.21484H15H16V4.21484V17.0148V18.0148H15H1H0V17.0148V4.21484V3.21484H1H4.5181Z" fill="#1A1A1A"/>
</svg>
