<svg width="40" height="40" viewBox="0 0 40 40" fill="none" xmlns="http://www.w3.org/2000/svg">
<path d="M40 20C40 25.4801 37.796 30.445 34.1852 34.0515C31.8406 36.4403 28.8394 38.2201 25.51 39.2037C23.728 39.719 21.8992 40 19.9766 40C18.2415 40 16.6002 39.7658 15.0059 39.3911C12.0047 38.5948 9.23798 37.1428 6.94021 35.1756C2.67291 31.5222 0 26.089 0 20.0468C0 8.94613 8.95663 0 20.0235 0C31.0903 0 40 8.94613 40 20Z" fill="#BCC3FF"/>
<path d="M34.2323 34.0515C31.8877 36.4402 28.8865 38.2201 25.5571 39.2037C23.7751 39.7189 21.9463 40 20.0237 40C18.2886 40 16.6473 39.7658 15.053 39.3911C12.0518 38.5948 9.28508 37.1428 6.9873 35.1756L8.34721 27.822C8.67546 25.9953 10.0823 24.5901 11.9111 24.2623L15.7564 23.5597L17.8197 23.185L19.9768 22.8103L22.8841 23.4192L24.3847 23.747L29.6368 24.8243C31.3718 25.199 32.7786 26.5573 33.1069 28.3372L34.2323 34.0515Z" fill="#5E57B0"/>
<path d="M25.5566 39.2037C23.7746 39.7189 21.9458 39.9999 20.0232 39.9999C18.2881 39.9999 16.6469 39.7657 15.0525 39.391L15.7559 23.6065L17.8192 23.2318L19.9763 22.8571L22.8837 23.466L24.3843 23.7938L25.5566 39.2037Z" fill="white"/>
<path d="M15.4282 14.4262C15.4282 14.4262 13.9745 9.74236 15.7564 9.64868C15.7564 9.64868 16.2254 7.30676 18.5231 7.3536C20.8209 7.40044 24.4786 8.43088 25.3696 9.36765C26.2605 10.3044 25.7447 14.1452 25.7447 14.1452L19.6486 15.925L15.4282 14.4262Z" fill="#41180F"/>
<path d="M18.1947 17.8455L17.7726 24.075C17.7257 24.5434 18.054 24.9649 18.476 25.1054C19.0387 25.2459 19.789 25.3864 20.6331 25.3396C21.2427 25.2928 21.8055 25.1991 22.2275 25.1054C22.6964 24.9649 22.9778 24.5434 22.9778 24.075L22.5089 17.8455H18.1947Z" fill="#943E29"/>
<path d="M18.1943 17.8455L17.913 21.5457C18.8978 22.0141 20.8204 22.623 22.743 21.171L22.5554 18.3607C22.2272 18.1734 21.8989 17.986 21.5238 17.7987H18.1943V17.8455Z" fill="#5A281D"/>
<path d="M16.1315 11.4286C16.1315 11.4286 15.1468 15.8783 16.5067 18.8291C17.8666 21.7331 20.3051 21.6394 21.0553 21.5925C21.7587 21.5457 26.3074 21.0305 24.9475 11.616C24.9475 11.616 17.9135 14.52 16.1315 11.4286Z" fill="#943E29"/>
<path d="M16.3435 16.532C16.9363 16.213 17.0884 15.3452 16.6831 14.5937C16.2778 13.8421 15.4687 13.4914 14.8759 13.8103C14.2831 14.1293 14.131 14.9971 14.5363 15.7486C14.9416 16.5002 15.7507 16.8509 16.3435 16.532Z" fill="#943E29"/>
<path d="M26.7173 15.7557C27.1226 15.0041 26.9705 14.1363 26.3777 13.8174C25.7849 13.4985 24.9758 13.8492 24.5705 14.6007C24.1652 15.3523 24.3173 16.2201 24.9101 16.539C25.5029 16.8579 26.312 16.5072 26.7173 15.7557Z" fill="#943E29"/>
</svg>
